# This file uses centimeters as units for non-parametric coordinates.

mtllib glass.mtl
g default
v -8.460157 0.629703 0.500000
v 8.507991 0.629703 0.500000
v 8.507991 4.590751 0.500000
v -8.460157 4.590751 0.500000
v -8.460157 0.629703 -0.500000
v -8.460157 4.590751 -0.500000
v 8.507991 4.590751 -0.500000
v 8.507991 0.629703 -0.500000
vt 0.000944 0.998008
vt 0.000944 0.001992
vt 0.233454 0.001992
vt 0.233454 0.998008
vt 0.472961 0.998008
vt 0.240450 0.998008
vt 0.240450 0.001992
vt 0.472961 0.001992
vn 0.000000 0.000000 1.000000
vn 0.000000 0.000000 1.000000
vn 0.000000 0.000000 1.000000
vn 0.000000 0.000000 1.000000
vn 0.000000 0.000000 -1.000000
vn 0.000000 0.000000 -1.000000
vn 0.000000 0.000000 -1.000000
vn 0.000000 0.000000 -1.000000
s off
g glass
usemtl lambert2SG
f 1/1/1 2/2/2 3/3/3 4/4/4
f 5/5/5 6/6/6 7/7/7 8/8/8
g default
v -8.650366 -0.003301 0.760935
v 8.650366 -0.003301 0.760935
v -8.650366 -0.003301 -0.760935
v 8.650366 -0.003301 -0.760935
v -8.650366 1.316054 0.532677
v -8.650366 0.804109 0.760935
v -8.650366 1.000022 0.743560
v -8.650366 1.166109 0.694080
v -8.650366 1.277085 0.620028
v 8.650366 1.316054 0.532677
v 8.650366 1.277085 0.620028
v 8.650366 1.166109 0.694080
v 8.650366 1.000022 0.743560
v 8.650366 0.804109 0.760935
v -8.650366 0.804109 -0.760935
v -8.650366 1.316054 -0.532677
v -8.650366 1.277085 -0.620028
v -8.650366 1.166109 -0.694080
v -8.650366 1.000022 -0.743560
v 8.650366 0.804109 -0.760935
v 8.650366 1.000022 -0.743560
v 8.650366 1.166109 -0.694080
v 8.650366 1.277085 -0.620028
v 8.650366 1.316054 -0.532677
v 0.000000 1.000022 -0.743560
v 0.000000 0.804109 -0.760935
v 0.000000 -0.003301 -0.760935
v 0.000000 -0.003301 0.760935
v 0.000000 0.804109 0.760935
v 0.000000 1.000022 0.743560
v 0.000000 1.166109 0.694080
v 0.000000 1.277085 0.620028
v 0.000000 1.316054 0.532677
v 0.000000 1.316054 -0.532677
v 0.000000 1.277085 -0.620028
v 0.000000 1.166109 -0.694080
v 8.471400 1.277085 -0.620028
v 8.471400 1.166109 -0.694080
v 8.471400 1.000022 -0.743560
v 8.471400 0.804109 -0.760935
v 8.471400 -0.003301 -0.760935
v 8.471400 -0.003301 0.760935
v 8.471400 0.804109 0.760935
v 8.471400 1.000022 0.743560
v 8.471400 1.166109 0.694080
v 8.471400 1.277085 0.620028
v 8.471400 1.316054 0.532677
v 8.471400 1.316054 -0.532677
v -8.471400 1.277085 -0.620028
v -8.471400 1.166109 -0.694080
v -8.471400 1.000022 -0.743560
v -8.471400 0.804109 -0.760935
v -8.471400 -0.003301 -0.760935
v -8.471400 -0.003301 0.760935
v -8.471400 0.804109 0.760935
v -8.471400 1.000022 0.743560
v -8.471400 1.166109 0.694080
v -8.471400 1.277085 0.620028
v -8.471400 1.316054 0.532677
v -8.471400 1.316054 -0.532677
v -8.650366 4.608570 0.532677
v -8.471400 4.608570 0.532677
v -8.471400 4.608570 -0.532677
v -8.650366 4.608570 -0.532677
v -8.650366 4.508331 0.620028
v -8.471400 4.508331 0.620028
v -8.650366 4.508331 -0.620028
v -8.471400 4.508331 -0.620028
v 8.471400 4.508331 0.620028
v 8.471400 4.608570 0.532677
v 8.650366 4.508331 0.620028
v 8.650366 4.608570 0.532677
v 8.471400 4.608570 -0.532677
v 8.650366 4.608570 -0.532677
v 8.471400 4.508331 -0.620028
v 8.650366 4.508331 -0.620028
v -8.650366 4.784524 0.532677
v -8.471400 4.784524 0.532677
v -8.471400 4.784524 -0.532677
v -8.650366 4.784524 -0.532677
v -8.650366 4.784524 0.620028
v -8.471400 4.784524 0.620028
v -8.650366 4.784524 -0.620028
v -8.471400 4.784524 -0.620028
v 8.471400 4.784524 0.620028
v 8.471400 4.784524 0.532677
v 8.650366 4.784524 0.620028
v 8.650366 4.784524 0.532677
v 8.471400 4.784524 -0.532677
v 8.650366 4.784524 -0.532677
v 8.471400 4.784524 -0.620028
v 8.650366 4.784524 -0.620028
v -8.650366 4.608570 0.810856
v -8.471400 4.608570 0.810856
v -8.471400 4.784524 0.810856
v -8.650366 4.784524 0.810856
v -8.650366 4.608570 -0.810856
v -8.471400 4.608570 -0.810856
v -8.650366 4.784524 -0.810856
v -8.471400 4.784524 -0.810856
v 8.471400 4.608570 0.810856
v 8.650366 4.608570 0.810856
v 8.650366 4.784524 0.810856
v 8.471400 4.784524 0.810856
v 8.471400 4.608570 -0.810856
v 8.650366 4.608570 -0.810856
v 8.471400 4.784524 -0.810856
v 8.650366 4.784524 -0.810856
vt 0.004940 0.353891
vt 0.004940 0.232280
vt 0.155559 0.232280
vt 0.155559 0.353891
vt 0.153839 0.383399
vt 0.148942 0.408415
vt 0.141613 0.425130
vt 0.132968 0.430999
vt 0.027531 0.430999
vt 0.018886 0.425130
vt 0.011557 0.408415
vt 0.006660 0.383399
vt 0.141613 0.911814
vt 0.132968 0.926912
vt 0.027531 0.926912
vt 0.018886 0.911814
vt 0.141613 0.953414
vt 0.132968 0.953414
vt 0.027531 0.953414
vt 0.018886 0.953414
vt 0.160499 0.926912
vt 0.160500 0.953414
vt 0.000000 0.953414
vt 0.000000 0.926912
vt 0.972469 0.522415
vt 0.981114 0.528284
vt 0.988443 0.544999
vt 0.993340 0.570015
vt 0.995060 0.599523
vt 0.995060 0.721134
vt 0.844441 0.721134
vt 0.844441 0.599523
vt 0.846161 0.570015
vt 0.851058 0.544999
vt 0.858387 0.528284
vt 0.867032 0.522415
vt 0.972469 0.026502
vt 0.981114 0.041600
vt 0.858387 0.041600
vt 0.867032 0.026502
vt 0.972469 0.000000
vt 0.981114 0.000000
vt 0.858387 0.000000
vt 0.867032 0.000000
vt 1.000000 0.000000
vt 1.000000 0.026502
vt 0.839501 0.026502
vt 0.839501 0.000000
vt 0.392915 0.894231
vt 0.287478 0.894231
vt 0.287478 0.398318
vt 0.392915 0.398318
vt 0.278833 0.900100
vt 0.278833 0.413416
vt 0.401560 0.900100
vt 0.401560 0.413416
vt 0.164362 0.808191
vt 0.155717 0.814061
vt 0.155717 0.327376
vt 0.164362 0.312278
vt 0.269800 0.808191
vt 0.269800 0.312278
vt 0.278445 0.814061
vt 0.278445 0.327376
vt 0.434906 0.000302
vt 0.434959 0.001876
vt 0.329540 0.001567
vt 0.329452 0.000000
vt 0.443597 0.000422
vt 0.443635 0.002032
vt 0.434192 0.149487
vt 0.328764 0.149241
vt 0.320869 0.000030
vt 0.320929 0.001593
vt 0.462631 0.001066
vt 0.462595 0.002608
vt 0.442806 0.149408
vt 0.434319 0.151043
vt 0.328851 0.150808
vt 0.320094 0.149055
vt 0.302106 0.001604
vt 0.302148 0.000046
vt 0.461623 0.149377
vt 0.442872 0.150970
vt 0.320120 0.150627
vt 0.301179 0.148573
vt 0.461581 0.150935
vt 0.301139 0.150122
vt 0.467296 0.150615
vt 0.467099 0.149064
vt 0.613973 0.149303
vt 0.613740 0.150845
vt 0.462433 0.077242
vt 0.616944 0.073609
vt 0.465406 0.001546
vt 0.612278 0.001789
vt 0.465642 0.000000
vt 0.612082 0.000243
vt 0.557246 0.161523
vt 0.557673 0.266960
vt 0.483922 0.267259
vt 0.483495 0.161822
vt 0.630996 0.161225
vt 0.631423 0.266661
vt 0.557715 0.277409
vt 0.483965 0.277708
vt 0.557203 0.151074
vt 0.483453 0.151373
vt 0.631466 0.277110
vt 0.630954 0.150775
vt 0.792652 0.345472
vt 0.687215 0.345472
vt 0.687215 0.197970
vt 0.792652 0.197970
vt 0.678207 0.003207
vt 0.679764 0.003174
vt 0.682354 0.124757
vt 0.680796 0.124790
vt 0.500546 0.473266
vt 0.501438 0.471989
vt 0.601119 0.541652
vt 0.600227 0.542929
vt 0.682357 0.198073
vt 0.681968 0.179826
vt 0.683526 0.179793
vt 0.683914 0.198040
vt 0.681425 0.154341
vt 0.682983 0.154308
vt 0.476318 0.456334
vt 0.477210 0.455057
vt 0.455424 0.441733
vt 0.456317 0.440456
vt 0.440464 0.431278
vt 0.441357 0.430001
vt 0.543685 0.411537
vt 0.519457 0.394606
vt 0.561704 0.334154
vt 0.585932 0.351086
vt 0.643366 0.481200
vt 0.685613 0.420748
vt 0.756088 0.123187
vt 0.753499 0.001604
vt 0.827233 0.000033
vt 0.829822 0.121616
vt 0.756717 0.152738
vt 0.830452 0.151168
vt 0.757260 0.178223
vt 0.830994 0.176653
vt 0.757649 0.196470
vt 0.831383 0.194899
vt 0.498564 0.380004
vt 0.483604 0.369549
vt 0.525851 0.309097
vt 0.540810 0.319552
vt 0.526743 0.307820
vt 0.541703 0.318275
vt 0.562597 0.332877
vt 0.586825 0.349809
vt 0.686506 0.419471
vt 0.828791 0.000000
vt 0.831380 0.121583
vt 0.832009 0.151135
vt 0.832552 0.176619
vt 0.832941 0.194866
vt 0.694277 0.684614
vt 0.692719 0.684648
vt 0.041542 0.152489
vt 0.042434 0.151212
vt 0.843303 0.681441
vt 0.841745 0.681474
vt 0.126928 0.030309
vt 0.127821 0.029032
vt 0.693234 0.708821
vt 0.694791 0.708788
vt 0.695356 0.735284
vt 0.693798 0.735317
vt 0.022615 0.137362
vt 0.021723 0.138639
vt 0.000000 0.123458
vt 0.000892 0.122181
vt 0.842260 0.705648
vt 0.843818 0.705614
vt 0.844382 0.732110
vt 0.842824 0.732143
vt 0.108002 0.015181
vt 0.107109 0.016458
vt 0.085386 0.001277
vt 0.086279 0.000000
vt 0.112954 0.018533
vt 0.112820 0.001136
vt 0.260318 0.000000
vt 0.260452 0.017397
vt 0.285198 0.017210
vt 0.285332 0.034607
vt 0.137834 0.035743
vt 0.137700 0.018346
vn 0.000000 0.000000 1.000000
vn 0.000000 0.000000 1.000000
vn 0.000000 0.017315 0.999850
vn 0.000000 0.017315 0.999850
vn 0.000000 1.000000 0.000000
vn 0.000000 1.000000 0.000000
vn 0.000000 1.000000 0.000000
vn 0.000000 1.000000 0.000000
vn 0.000000 0.017315 -0.999850
vn 0.000000 0.017315 -0.999850
vn 0.000000 0.000000 -1.000000
vn 0.000000 0.000000 -1.000000
vn 0.000000 -1.000000 0.000000
vn 0.000000 -1.000000 0.000000
vn 0.000000 -1.000000 0.000000
vn 0.000000 -1.000000 0.000000
vn 0.000000 1.000000 0.000000
vn 0.000000 1.000000 0.000000
vn 0.000000 0.555054 0.831814
vn 0.000000 0.407220 0.913330
vn 0.000000 0.407220 0.913330
vn 0.000000 0.730637 0.682766
vn 0.000000 0.181611 0.983370
vn 0.000000 0.181611 0.983370
vn 0.000000 0.181611 -0.983370
vn 0.000000 0.181611 -0.983370
vn 0.000000 0.407220 -0.913330
vn 0.000000 0.407220 -0.913330
vn 0.000000 0.555054 -0.831814
vn 0.000000 0.730637 -0.682766
vn 0.000000 1.000000 0.000000
vn 0.000000 1.000000 0.000000
vn -1.000000 0.000001 0.000000
vn -1.000000 0.000001 0.000000
vn -1.000000 0.000001 0.000000
vn -1.000000 0.000001 0.000000
vn -1.000000 0.000001 0.000000
vn -1.000000 0.000001 0.000000
vn -1.000000 0.000001 0.000000
vn -1.000000 0.000001 0.000000
vn -1.000000 0.000001 0.000000
vn -1.000000 0.000001 0.000000
vn -1.000000 0.000001 0.000000
vn -1.000000 0.000001 0.000000
vn 1.000000 0.000001 0.000000
vn 1.000000 0.000001 0.000000
vn 1.000000 0.000001 0.000000
vn 1.000000 0.000001 0.000000
vn 1.000000 0.000001 0.000000
vn 1.000000 0.000001 0.000000
vn 1.000000 0.000001 0.000000
vn 1.000000 0.000001 0.000000
vn 1.000000 0.000001 0.000000
vn 1.000000 0.000001 0.000000
vn 1.000000 0.000001 0.000000
vn 1.000000 0.000001 0.000000
vn 0.000000 0.017315 -0.999850
vn 0.000000 0.181611 -0.983370
vn 0.000000 0.181611 -0.983370
vn 0.000000 0.017315 -0.999850
vn 0.000000 0.000000 -1.000000
vn 0.000000 0.000000 -1.000000
vn 0.000000 -1.000000 0.000000
vn 0.000000 -1.000000 0.000000
vn 0.000000 -1.000000 0.000000
vn 0.000000 -1.000000 0.000000
vn 0.000000 0.017315 0.999850
vn 0.000000 0.000000 1.000000
vn 0.000000 0.000000 1.000000
vn 0.000000 0.017315 0.999850
vn 0.000000 0.181611 0.983370
vn 0.000000 0.181611 0.983370
vn 0.000000 0.407220 0.913330
vn 0.000000 0.407220 0.913330
vn 0.000000 0.732632 0.680625
vn 0.000000 0.730637 0.682766
vn 0.000000 0.999429 0.033788
vn 0.000000 0.999429 0.033788
vn 0.000000 0.999429 -0.033788
vn 0.000000 0.999429 -0.033788
vn 0.000000 0.732632 -0.680625
vn 0.000000 0.730637 -0.682766
vn 0.000000 0.407220 -0.913330
vn 0.000000 0.407220 -0.913330
vn 0.000000 0.555054 -0.831814
vn 0.000000 0.407220 -0.913330
vn 0.000000 0.181611 -0.983370
vn 0.000000 0.017315 -0.999850
vn 0.000000 0.000000 -1.000000
vn 0.000000 -1.000000 0.000000
vn 0.000000 -1.000000 0.000000
vn 0.000000 0.000000 1.000000
vn 0.000000 0.017315 0.999850
vn 0.000000 0.181611 0.983370
vn 0.000000 0.407220 0.913330
vn 0.000000 0.555054 0.831814
vn 0.000000 1.000000 0.000000
vn 0.000000 1.000000 0.000000
vn 0.000000 1.000000 0.000000
vn 0.000000 1.000000 0.000000
vn 0.000000 1.000000 0.000000
vn 0.000000 1.000000 0.000000
vn 0.000000 1.000000 0.000000
vn 0.000000 1.000000 0.000000
vn 0.000000 0.999429 0.033788
vn 0.000000 0.999429 -0.033788
vn 1.000000 0.000000 0.000000
vn 1.000000 0.000000 0.000000
vn 1.000000 0.000000 0.000000
vn 1.000000 0.000000 0.000000
vn -1.000000 0.000000 0.000000
vn -1.000000 0.000000 0.000000
vn -1.000000 0.000000 0.000000
vn -1.000000 0.000000 0.000000
vn -1.000000 0.000000 0.000000
vn -1.000000 0.000000 0.000000
vn -1.000000 0.000000 0.000000
vn -1.000000 0.000000 0.000000
vn 0.000000 0.000000 1.000000
vn 0.000000 0.000000 1.000000
vn 0.000000 0.000000 1.000000
vn 0.000000 0.000000 1.000000
vn 1.000000 0.000000 0.000000
vn 1.000000 0.000000 0.000000
vn 1.000000 0.000000 0.000000
vn 1.000000 0.000000 0.000000
vn -1.000000 0.000000 0.000000
vn -1.000000 0.000000 0.000000
vn -1.000000 0.000000 0.000000
vn -1.000000 0.000000 0.000000
vn 1.000000 0.000000 0.000000
vn 1.000000 0.000000 0.000000
vn 1.000000 0.000000 0.000000
vn 1.000000 0.000000 0.000000
vn 0.000000 0.000000 -1.000000
vn 0.000000 0.000000 -1.000000
vn 0.000000 0.000000 -1.000000
vn 0.000000 0.000000 -1.000000
vn -1.000000 0.000000 0.000000
vn -1.000000 0.000000 0.000000
vn -1.000000 0.000000 0.000000
vn -1.000000 0.000000 0.000000
vn 0.000000 0.000000 1.000000
vn 0.000000 0.000000 1.000000
vn 0.000000 0.000000 1.000000
vn 0.000000 0.000000 1.000000
vn 1.000000 0.000000 0.000000
vn 1.000000 0.000000 0.000000
vn 1.000000 0.000000 0.000000
vn 1.000000 0.000000 0.000000
vn -1.000000 0.000000 0.000000
vn -1.000000 0.000000 0.000000
vn -1.000000 0.000000 0.000000
vn -1.000000 0.000000 0.000000
vn 1.000000 0.000000 0.000000
vn 1.000000 0.000000 0.000000
vn 1.000000 0.000000 0.000000
vn 1.000000 0.000000 0.000000
vn -1.000000 0.000000 0.000000
vn -1.000000 0.000000 0.000000
vn -1.000000 0.000000 0.000000
vn -1.000000 0.000000 0.000000
vn 1.000000 0.000000 0.000000
vn 1.000000 0.000000 0.000000
vn 1.000000 0.000000 0.000000
vn 1.000000 0.000000 0.000000
vn 0.000000 0.000000 -1.000000
vn 0.000000 0.000000 -1.000000
vn 0.000000 0.000000 -1.000000
vn 0.000000 0.000000 -1.000000
vn -1.000000 0.000000 0.000000
vn -1.000000 0.000000 0.000000
vn -1.000000 0.000000 0.000000
vn -1.000000 0.000000 0.000000
vn -1.000000 0.000000 0.000000
vn -1.000000 0.000000 0.000000
vn -1.000000 0.000000 0.000000
vn -1.000000 0.000000 0.000000
vn 0.000000 0.000000 1.000000
vn 0.000000 0.000000 1.000000
vn 0.000000 0.000000 1.000000
vn 0.000000 0.000000 1.000000
vn -1.000000 0.000000 0.000000
vn -1.000000 0.000000 0.000000
vn -1.000000 0.000000 0.000000
vn -1.000000 0.000000 0.000000
vn 0.000000 0.000000 -1.000000
vn 0.000000 0.000000 -1.000000
vn 0.000000 0.000000 -1.000000
vn 0.000000 0.000000 -1.000000
vn 0.000000 0.000000 1.000000
vn 0.000000 0.000000 1.000000
vn 0.000000 0.000000 1.000000
vn 0.000000 0.000000 1.000000
vn 1.000000 0.000000 0.000000
vn 1.000000 0.000000 0.000000
vn 1.000000 0.000000 0.000000
vn 1.000000 0.000000 0.000000
vn 1.000000 0.000000 0.000000
vn 1.000000 0.000000 0.000000
vn 1.000000 0.000000 0.000000
vn 1.000000 0.000000 0.000000
vn 1.000000 0.000000 0.000000
vn 1.000000 0.000000 0.000000
vn 1.000000 0.000000 0.000000
vn 1.000000 0.000000 0.000000
vn 0.000000 0.000000 -1.000000
vn 0.000000 0.000000 -1.000000
vn 0.000000 0.000000 -1.000000
vn 0.000000 0.000000 -1.000000
vn 0.000000 -0.885294 0.465031
vn 0.000000 -0.885294 0.465031
vn 0.000000 -0.885294 0.465031
vn 0.000000 -0.885294 0.465031
vn 0.000000 1.000000 0.000000
vn 0.000000 1.000000 0.000000
vn -1.000000 0.000000 0.000000
vn -1.000000 0.000000 0.000000
vn 0.000000 -0.885294 -0.465031
vn 0.000000 -0.885294 -0.465031
vn 0.000000 -0.885294 -0.465031
vn 0.000000 -0.885294 -0.465031
vn -1.000000 0.000000 0.000000
vn -1.000000 0.000000 0.000000
vn 0.000000 1.000000 0.000000
vn 0.000000 1.000000 0.000000
vn 0.000000 -0.885294 0.465031
vn 0.000000 -0.885294 0.465031
vn 0.000000 -0.885294 0.465031
vn 0.000000 -0.885294 0.465031
vn 1.000000 0.000000 0.000000
vn 1.000000 0.000000 0.000000
vn 0.000000 1.000000 0.000000
vn 0.000000 1.000000 0.000000
vn 0.000000 -0.885294 -0.465031
vn 0.000000 -0.885294 -0.465031
vn 0.000000 -0.885294 -0.465031
vn 0.000000 -0.885294 -0.465031
vn 0.000000 1.000000 0.000000
vn 0.000000 1.000000 0.000000
vn 1.000000 0.000000 0.000000
vn 1.000000 0.000000 0.000000
vn 0.000000 -0.656977 0.753911
vn 0.000000 -0.656977 0.753911
vn 0.000000 -0.656977 0.753911
vn 0.000000 -0.656977 0.753911
vn 0.000000 -0.885295 -0.465030
vn 0.000000 -0.885295 -0.465030
vn 0.000000 -0.885295 -0.465030
vn 0.000000 -0.885295 -0.465030
vn 0.000000 0.000000 -1.000000
vn 0.000000 0.000000 -1.000000
vn 0.000000 0.000000 -1.000000
vn 0.000000 0.000000 -1.000000
vn 0.000000 1.000000 0.000000
vn 0.000000 1.000000 0.000000
vn 0.000000 1.000000 0.000000
vn 0.000000 1.000000 0.000000
vn 0.000000 1.000000 0.000000
vn 0.000000 1.000000 0.000000
vn 0.000000 1.000000 0.000000
vn 0.000000 1.000000 0.000000
vn 0.000000 1.000000 0.000000
vn 0.000000 1.000000 0.000000
vn 0.000000 1.000000 0.000000
vn 0.000000 1.000000 0.000000
vn 0.000000 1.000000 0.000000
vn 0.000000 1.000000 0.000000
vn 0.000000 1.000000 0.000000
vn 0.000000 1.000000 0.000000
vn 0.000000 1.000000 0.000000
vn 0.000000 1.000000 0.000000
vn 0.000000 1.000000 0.000000
vn 0.000000 1.000000 0.000000
vn 0.000000 0.000000 1.000000
vn 0.000000 0.000000 1.000000
vn 0.000000 0.000000 1.000000
vn 0.000000 0.000000 1.000000
vn 0.000000 -0.885295 0.465030
vn 0.000000 -0.885295 0.465030
vn 0.000000 -0.885295 0.465030
vn 0.000000 -0.885295 0.465030
vn 0.000000 -0.656977 -0.753911
vn 0.000000 -0.656977 -0.753911
vn 0.000000 -0.656977 -0.753911
vn 0.000000 -0.656977 -0.753911
vn 0.000000 -1.000000 0.000000
vn 0.000000 -1.000000 0.000000
vn 0.000000 -1.000000 0.000000
vn 0.000000 -1.000000 0.000000
s 1
g pCube2
usemtl initialShadingGroup
f 9/123/9 62/124/10 63/125/11 14/126/12
s 2
f 85/73/13 86/74/14 87/75/15 88/76/16
s 1
f 23/127/17 60/128/18 61/129/19 11/130/20
s 4
f 11/97/21 61/98/22 62/99/23 9/100/24
s 2
f 85/73/13 89/77/25 90/78/26 86/74/14
s 1
f 17/131/27 16/132/28 65/133/29 66/134/30
f 16/132/28 15/135/31 64/136/32 65/133/29
f 15/135/31 14/126/12 63/125/11 64/136/32
f 23/127/17 27/137/33 59/138/34 60/128/18
f 27/137/33 26/139/35 58/140/36 59/138/34
f 26/139/35 25/141/37 57/142/38 58/140/36
s 2
f 91/81/39 88/76/16 87/75/15 92/82/40
s off
f 23/9/41 11/10/42 9/11/43 14/12/44 15/13/45 16/14/46 17/15/47 13/16/48 24/17/49 25/18/50 26/19/51 27/20/52
f 18/33/53 19/34/54 20/35/55 21/36/56 22/37/57 10/38/58 12/39/59 28/40/60 29/41/61 30/42/62 31/43/63 32/44/64
s 1
f 34/143/65 33/144/66 47/145/67 48/146/68
f 35/147/69 34/143/65 48/146/68 49/148/70
s 4
f 36/102/71 35/101/72 49/103/73 50/104/74
s 1
f 37/149/75 36/150/76 50/151/77 51/152/78
f 38/153/79 37/149/75 51/152/78 52/154/80
f 39/155/81 38/153/79 52/154/80 53/156/82
f 40/157/83 39/155/81 53/156/82 54/158/84
f 41/108/85 40/113/83 54/114/84 55/109/86
f 42/107/87 41/108/85 55/109/86 56/110/88
f 43/115/89 42/107/87 56/110/88 45/116/90
f 44/159/91 43/160/89 45/161/90 46/162/92
f 33/144/66 44/159/91 46/162/92 47/145/67
f 46/162/92 45/161/90 31/163/93 30/164/94
f 47/145/67 46/162/92 30/164/94 29/165/95
f 48/146/68 47/145/67 29/165/95 28/166/96
f 49/148/70 48/146/68 28/166/96 12/167/97
s 4
f 50/104/74 49/103/73 12/105/98 10/106/99
s 1
f 51/152/78 50/151/77 10/168/100 22/169/101
f 52/154/80 51/152/78 22/169/101 21/170/102
f 53/156/82 52/154/80 21/170/102 20/171/103
f 54/158/84 53/156/82 20/171/103 19/172/104
s 6
f 94/79/105 93/85/106 95/92/107 96/86/108
f 97/80/109 94/79/105 96/86/108 98/87/110
f 99/88/111 97/80/109 98/87/110 100/93/112
s 1
f 58/140/36 57/142/38 43/160/89 44/159/91
f 59/138/34 58/140/36 44/159/91 33/144/66
f 60/128/18 59/138/34 33/144/66 34/143/65
f 61/129/19 60/128/18 34/143/65 35/147/69
s 4
f 62/99/23 61/98/22 35/101/72 36/102/71
s 1
f 63/125/11 62/124/10 36/150/76 37/149/75
f 64/136/32 63/125/11 37/149/75 38/153/79
f 65/133/29 64/136/32 38/153/79 39/155/81
f 66/134/30 65/133/29 39/155/81 40/157/83
f 67/112/113 66/117/30 40/113/83 41/108/85
f 68/111/114 67/112/113 41/108/85 42/107/87
f 57/118/38 68/111/114 42/107/87 43/115/89
s off
f 67/57/115 68/58/116 71/59/117 70/60/118
f 24/17/119 13/16/120 69/22/121 72/23/122
f 13/16/123 17/15/124 73/21/125 69/22/126
f 17/131/127 66/134/128 74/173/129 73/174/130
f 66/63/131 67/57/132 70/60/133 74/64/134
f 25/18/135 24/17/136 72/23/137 75/24/138
f 68/58/139 57/61/140 76/62/141 71/59/142
f 57/142/143 25/141/144 75/175/145 76/176/146
f 55/65/147 54/66/148 77/67/149 78/68/150
f 54/158/151 19/172/152 79/177/153 77/178/154
f 19/34/155 18/33/156 80/45/157 79/46/158
f 56/69/159 55/65/160 78/68/161 81/70/162
f 18/33/163 32/44/164 82/48/165 80/45/166
f 45/71/167 56/69/168 81/70/169 83/72/170
f 32/44/171 31/43/172 84/47/173 82/48/174
f 31/163/175 45/161/176 83/179/177 84/180/178
f 72/23/179 69/22/180 85/26/181 88/27/182
s 7
f 69/22/183 73/21/184 89/25/185 85/26/186
s off
f 101/181/187 102/182/188 103/183/189 104/184/190
s 8
f 75/24/191 72/23/192 88/27/193 91/28/194
s off
f 106/185/195 105/186/196 107/187/197 108/188/198
f 109/189/199 110/190/200 111/191/201 112/192/202
s 9
f 79/46/203 80/45/204 96/49/205 95/50/206
s off
f 80/45/207 82/48/208 98/52/209 96/49/210
s 10
f 82/48/211 84/47/212 100/51/213 98/52/214
s off
f 114/193/215 113/194/216 115/195/217 116/196/218
f 73/174/219 74/173/220 102/182/221 101/181/222
s 2
f 90/78/26 89/77/25 104/83/223 103/84/224
s 7
f 89/25/185 73/21/184 101/29/225 104/30/226
s off
f 76/176/227 75/175/228 105/186/229 106/185/230
s 8
f 75/24/191 91/28/194 107/31/231 105/32/232
s 2
f 91/81/39 92/82/40 108/89/233 107/90/234
s off
f 77/178/235 79/177/236 110/190/237 109/189/238
s 9
f 79/46/203 95/50/206 111/53/239 110/54/240
s 6
f 95/92/107 93/85/106 112/91/241 111/95/242
s off
f 84/180/243 83/179/244 113/194/245 114/193/246
s 6
f 99/88/111 100/93/112 116/96/247 115/94/248
s 10
f 100/51/213 84/47/212 114/55/249 116/56/250
s off
f 71/197/251 76/198/252 83/199/253 81/200/254
f 76/176/255 106/185/256 113/194/257 83/179/258
f 106/185/259 108/188/260 115/195/261 113/194/262
f 108/89/263 92/82/264 99/88/265 115/94/266
f 92/82/267 87/75/268 97/80/269 99/88/270
f 87/75/271 86/74/272 94/79/273 97/80/274
f 86/74/275 90/78/276 93/85/277 94/79/278
f 90/78/279 103/84/280 112/91/281 93/85/282
f 103/183/283 102/182/284 109/189/285 112/192/286
f 102/182/287 74/173/288 77/178/289 109/189/290
f 74/201/291 70/202/292 78/203/293 77/204/294
f 70/119/295 71/120/296 81/121/297 78/122/298
