# This file uses centimeters as units for non-parametric coordinates.

mtllib ScreenIV.mtl
g default
v -28.655436 8.958027 19.438770
v -28.655436 39.235969 19.438770
v -82.236388 39.235969 19.438770
v -82.236388 8.958027 19.438770
vt 0.994424 0.220665
vt 0.994441 0.779369
vt 0.005738 0.779401
vt 0.005721 0.220697
vn 0.000000 0.000000 1.000000
vn 0.000000 0.000000 1.000000
vn 0.000000 0.000000 1.000000
vn 0.000000 0.000000 1.000000
s off
g polySurface26 Screen Monitor
usemtl lambert21SG
f 4/4/1 1/1/2 2/2/3 3/3/4
